# Blender 3.4.1
# www.blender.org
mtllib blend_farm_house.mtl
o Cube
v -2.000000 0.000000 2.000000
v -2.000000 2.000000 0.350000
v -2.000000 0.000000 -2.000000
v -2.000000 2.000000 -0.350000
v 2.000000 0.000000 2.000000
v 2.000000 2.000000 0.350000
v 2.000000 0.000000 -2.000000
v 2.000000 2.000000 -0.350000
v -2.000000 0.000000 -0.333333
v -2.000000 0.000000 0.333333
v -2.000000 2.000000 0.333333
v -2.000000 2.000000 -0.333333
v 2.000000 0.000000 0.333333
v 2.000000 0.000000 -0.333333
v 2.000000 2.000000 -0.333333
v 2.000000 2.000000 0.333333
v -2.000000 1.415655 1.000000
v -2.000000 1.415655 -1.000000
v 2.000000 1.415655 -1.000000
v 2.000000 1.415655 1.000000
v 2.000000 1.415655 -0.333333
v 2.000000 1.415655 0.333333
v -2.000000 1.415655 0.333333
v -2.000000 1.415655 -0.333333
v 1.000000 0.000000 -2.000000
v 0.000000 0.000000 -2.000000
v -1.000000 0.000000 -2.000000
v -1.000000 2.000000 -0.350000
v 0.000000 2.000000 -0.350000
v 1.000000 2.000000 -0.350000
v -1.000000 0.000000 2.000000
v 0.000000 0.000000 2.000000
v 1.000000 0.000000 2.000000
v 1.000000 2.000000 0.350000
v 0.000000 2.000000 0.350000
v -1.000000 2.000000 0.350000
v -1.000000 2.000000 -0.333333
v 0.000000 2.000000 -0.333333
v 1.000000 2.000000 -0.333333
v -1.000000 2.000000 0.333333
v 0.000000 2.000000 0.333333
v 1.000000 2.000000 0.333333
v 1.000000 0.000000 -0.333333
v 0.000000 0.000000 -0.333333
v -1.000000 0.000000 -0.333333
v 1.000000 0.000000 0.333333
v 0.000000 0.000000 0.333333
v -1.000000 0.000000 0.333333
v 1.000000 1.415655 1.000000
v 0.000000 1.415655 1.000000
v -1.000000 1.415655 1.000000
v -1.000000 1.415655 -1.000000
v 0.000000 1.415655 -1.000000
v 1.000000 1.415655 -1.000000
v -2.100000 0.000000 -0.333333
v -2.100000 0.000000 0.333333
v -2.100000 1.415655 0.333333
v -2.100000 1.415655 -0.333333
v 2.100000 0.000000 0.333333
v 2.100000 0.000000 -0.333333
v 2.100000 1.415655 -0.333333
v 2.100000 1.415655 0.333333
vn -1.0000 -0.0000 -0.0000
vn -0.0000 0.7437 -0.6686
vn 1.0000 -0.0000 -0.0000
vn -0.0000 0.7437 0.6686
vn -0.0000 -1.0000 -0.0000
vn -0.0000 1.0000 -0.0000
vn -0.0000 0.5770 0.8168
vn -0.0000 0.5770 -0.8168
vn -0.0000 -0.0000 1.0000
vn -0.0000 -0.0000 -1.0000
vt 0.500000 0.000000
vt 1.000000 0.000000
vt 0.228020 0.500000
vt 0.891426 0.000000
vt 0.058140 0.000000
vt 0.293750 0.250000
vt 1.000000 0.500000
vt 0.000000 0.500000
vt 0.223931 0.000000
vt 0.206250 0.250000
vt 0.430181 0.250000
vt 0.000000 0.000000
vt 0.891426 0.500000
vt 1.000000 0.500000
vt 0.228020 0.000000
vt 0.211627 0.000000
vt 0.206250 0.250000
vt 0.417877 0.250000
vt 0.058140 0.500000
vt 0.891426 0.500000
vt 0.500000 0.000000
vt 0.000000 0.000000
vt 1.000000 0.000000
vt 0.000000 0.500000
vt 0.891426 0.000000
vt 0.293750 0.250000
vt 0.432265 0.000000
vt 0.208333 0.500000
vt 0.000000 0.000000
vt 0.049216 0.000000
vt 0.019686 0.500000
vt 0.291667 0.000000
vt 0.215882 0.000000
vt 0.000000 0.000000
vt 0.056756 0.000000
vt 1.000000 0.000000
vt 0.291667 0.250000
vt 0.414706 0.262304
vt 0.208333 0.250000
vt 0.001384 0.000000
vt 0.944628 0.000000
vt 0.331372 0.262304
vt 0.019686 0.000000
vt 0.419961 0.000000
vt 0.054137 0.000000
vt 0.000000 0.000000
vt 0.208333 0.000000
vt 0.291667 0.000000
vt 0.220804 0.000000
vt 0.000000 0.000000
vt 0.210461 0.434559
vt 0.944628 0.500000
vt 0.291667 0.250000
vt 0.208000 0.441941
vt 0.001384 0.500000
vt 0.208333 0.250000
vt 0.056756 0.500000
vt 0.124667 0.441941
vt 1.000000 0.500000
vt 1.000000 0.000000
vt 0.375000 0.176957
vt 0.784698 0.000000
vt 1.000000 0.500000
vt 0.348931 0.176957
vt 0.784698 0.500000
vt 1.000000 0.000000
vt 0.375000 0.176957
vt 0.784698 0.000000
vt 1.000000 0.500000
vt 0.336627 0.176957
vt 0.784698 0.500000
vt 0.210461 0.361516
vt 0.291667 0.176957
vt 0.220804 0.317666
vt 0.208333 0.176957
vt 0.127127 0.361516
vt 0.419961 0.176957
vt 0.124667 0.368898
vt 0.054137 0.317666
vt 0.414706 0.189261
vt 0.291667 0.176957
vt 0.215882 0.318522
vt 0.208333 0.176957
vt 0.432265 0.176957
vt 0.331372 0.189261
vt 0.049216 0.318522
vt 1.000000 0.125000
vt 0.000000 0.125000
vt 1.000000 0.250000
vt 0.000000 0.250000
vt 1.000000 0.375000
vt 0.000000 0.375000
vt 0.000000 0.125000
vt 0.891426 0.375000
vt 0.000000 0.250000
vt 0.891426 0.250000
vt 0.000000 0.375000
vt 0.891426 0.125000
vt 1.000000 0.125000
vt 0.228020 0.375000
vt 1.000000 0.250000
vt 0.228020 0.250000
vt 1.000000 0.375000
vt 0.228020 0.125000
vt 0.058140 0.375000
vt 0.891426 0.375000
vt 0.058140 0.250000
vt 0.891426 0.250000
vt 0.058140 0.125000
vt 0.891426 0.125000
vt 0.944628 0.125000
vt 0.001384 0.125000
vt 0.944628 0.250000
vt 0.001384 0.250000
vt 0.944628 0.375000
vt 0.001384 0.375000
vt 1.000000 0.125000
vt 0.056756 0.125000
vt 1.000000 0.250000
vt 0.056756 0.250000
vt 1.000000 0.375000
vt 0.056756 0.375000
vt 0.208333 0.125000
vt 0.208333 0.250000
vt 0.208333 0.375000
vt 0.019686 0.125000
vt 0.019686 0.250000
vt 0.019686 0.375000
vt 0.784698 0.375000
vt 1.000000 0.375000
vt 0.784698 0.250000
vt 1.000000 0.250000
vt 0.784698 0.125000
vt 1.000000 0.125000
vt 0.784698 0.375000
vt 1.000000 0.375000
vt 0.784698 0.250000
vt 1.000000 0.250000
vt 0.784698 0.125000
vt 1.000000 0.125000
vt 0.000000 0.000000
vt 0.049216 0.000000
vt 0.215882 0.000000
vt 0.000000 0.000000
vt 0.215882 0.318522
vt 0.049216 0.318522
vt 0.054137 0.000000
vt 0.000000 0.000000
vt 0.220804 0.000000
vt 0.000000 0.000000
vt 0.220804 0.317666
vt 0.054137 0.317666
s 0
usemtl GrainBinMaterial
f 24/83/1 12/39/1 4/10/1
f 19/66/2 54/140/2 30/98/2
f 22/75/3 16/56/3 6/17/3
f 17/60/4 51/134/4 36/110/4
f 33/104/5 46/126/5 13/43/5
f 36/109/6 40/118/6 11/35/6
f 37/112/6 28/93/6 4/12/6
f 40/117/6 37/111/6 12/41/6
f 43/123/5 25/88/5 7/22/5
f 21/73/3 19/67/3 8/26/3
f 22/76/3 21/72/3 15/51/3
f 23/81/1 17/61/1 2/6/1
f 24/85/1 23/80/1 11/38/1
f 10/32/1 1/1/1 17/61/1
f 14/48/3 7/21/3 19/67/3
f 1/2/7 31/99/7 51/133/7
f 13/44/3 22/77/3 20/70/3
f 7/23/8 25/87/8 54/139/8
f 9/27/1 24/84/1 18/64/1
f 27/91/8 3/7/8 18/65/8
f 26/89/8 27/91/8 52/135/8
f 25/87/8 26/89/8 53/137/8
f 33/103/7 5/14/7 20/71/7
f 32/101/7 33/103/7 49/129/7
f 31/99/7 32/101/7 50/131/7
f 9/28/5 3/8/5 27/92/5
f 45/125/5 27/92/5 26/90/5
f 44/124/5 26/90/5 25/88/5
f 16/59/6 15/52/6 39/115/6
f 42/121/6 39/115/6 38/113/6
f 41/119/6 38/113/6 37/111/6
f 15/55/6 8/24/6 30/97/6
f 39/116/6 30/97/6 29/95/6
f 38/114/6 29/95/6 28/93/6
f 6/19/6 16/57/6 42/122/6
f 34/105/6 42/122/6 41/120/6
f 35/107/6 41/120/6 40/118/6
f 1/3/5 10/31/5 48/128/5
f 31/100/5 48/128/5 47/127/5
f 32/102/5 47/127/5 46/126/5
f 49/130/4 20/69/4 6/20/4
f 50/132/4 49/130/4 34/106/4
f 51/134/4 50/132/4 35/108/4
f 52/136/2 18/63/2 4/13/2
f 53/138/2 52/136/2 28/94/2
f 54/140/2 53/138/2 29/96/2
f 24/84/1 4/11/1 18/64/1
f 19/66/2 30/98/2 8/25/2
f 22/77/3 6/18/3 20/70/3
f 17/60/4 36/110/4 2/4/4
f 33/104/5 13/43/5 5/15/5
f 36/109/6 11/35/6 2/5/6
f 37/112/6 4/12/6 12/40/6
f 40/117/6 12/41/6 11/36/6
f 43/123/5 7/22/5 14/47/5
f 21/73/3 8/26/3 15/53/3
f 22/78/3 15/54/3 16/58/3
f 23/81/1 2/6/1 11/37/1
f 24/85/1 11/38/1 12/42/1
f 10/32/1 17/61/1 23/81/1
f 14/48/3 19/67/3 21/73/3
f 1/2/7 51/133/7 17/62/7
f 13/44/3 20/70/3 5/16/3
f 7/23/8 54/139/8 19/68/8
f 9/27/1 18/64/1 3/9/1
f 27/91/8 18/65/8 52/135/8
f 26/89/8 52/135/8 53/137/8
f 25/87/8 53/137/8 54/139/8
f 33/103/7 20/71/7 49/129/7
f 32/101/7 49/129/7 50/131/7
f 31/99/7 50/131/7 51/133/7
f 9/28/5 27/92/5 45/125/5
f 45/125/5 26/90/5 44/124/5
f 44/124/5 25/88/5 43/123/5
f 16/59/6 39/115/6 42/121/6
f 42/121/6 38/113/6 41/119/6
f 41/119/6 37/111/6 40/117/6
f 15/55/6 30/97/6 39/116/6
f 39/116/6 29/95/6 38/114/6
f 38/114/6 28/93/6 37/112/6
f 6/19/6 42/122/6 34/105/6
f 34/105/6 41/120/6 35/107/6
f 35/107/6 40/118/6 36/109/6
f 1/3/5 48/128/5 31/100/5
f 31/100/5 47/127/5 32/102/5
f 32/102/5 46/126/5 33/104/5
f 49/130/4 6/20/4 34/106/4
f 50/132/4 34/106/4 35/108/4
f 51/134/4 35/108/4 36/110/4
f 52/136/2 4/13/2 28/94/2
f 53/138/2 28/94/2 29/96/2
f 54/140/2 29/96/2 30/98/2
f 10/33/9 23/82/9 57/145/9 56/143/9
f 56/143/1 57/145/1 58/146/1 55/142/1
f 9/29/5 10/34/5 56/144/5 55/141/5
f 24/86/10 9/30/10 55/142/10 58/146/10
f 23/82/6 24/86/6 58/146/6 57/145/6
f 21/74/6 22/79/6 62/152/6 61/151/6
f 60/149/3 61/151/3 62/152/3 59/147/3
f 22/79/9 13/45/9 59/147/9 62/152/9
f 14/49/10 21/74/10 61/151/10 60/149/10
f 13/46/5 14/50/5 60/150/5 59/148/5
